<mxfile host="app.diagrams.net" agent="Mozilla/5.0 (Windows NT 10.0; Win64; x64) AppleWebKit/537.36 (KHTML, like Gecko) Chrome/129.0.0.0 Safari/537.36" version="24.7.16">
  <diagram name="Page-1" id="c4acf3e9-155e-7222-9cf6-157b1a14988f">
    <mxGraphModel dx="880" dy="468" grid="1" gridSize="10" guides="1" tooltips="1" connect="1" arrows="1" fold="1" page="1" pageScale="1" pageWidth="850" pageHeight="1100" background="none" math="0" shadow="0">
      <root>
        <mxCell id="0" />
        <mxCell id="1" parent="0" />
        <mxCell id="17acba5748e5396b-1" value="frame" style="shape=umlFrame;whiteSpace=wrap;html=1;rounded=0;shadow=0;comic=0;labelBackgroundColor=none;strokeWidth=1;fontFamily=Verdana;fontSize=10;align=center;" parent="1" vertex="1">
          <mxGeometry y="20" width="820" height="1060" as="geometry" />
        </mxCell>
        <mxCell id="zGOCCgwyKRxWl-AE_hX9-2" value="&lt;font style=&quot;vertical-align: inherit;&quot;&gt;&lt;font style=&quot;vertical-align: inherit;&quot;&gt;OQueConstruir&lt;/font&gt;&lt;/font&gt;" style="swimlane;fontStyle=1;align=center;verticalAlign=top;childLayout=stackLayout;horizontal=1;startSize=26;horizontalStack=0;resizeParent=1;resizeParentMax=0;resizeLast=0;collapsible=1;marginBottom=0;whiteSpace=wrap;html=1;" vertex="1" parent="1">
          <mxGeometry x="300" y="240" width="160" height="160" as="geometry" />
        </mxCell>
        <mxCell id="zGOCCgwyKRxWl-AE_hX9-3" value="&lt;div&gt;&lt;div&gt;+String: paredeOuPiso&lt;/div&gt;&lt;/div&gt;&lt;div&gt;+Double:m²&lt;/div&gt;&lt;div&gt;+Double:m³&lt;/div&gt;&lt;div&gt;+Int:QtdDePortas&lt;/div&gt;&lt;div&gt;+Int: Espessura&lt;/div&gt;" style="text;strokeColor=none;fillColor=none;align=left;verticalAlign=top;spacingLeft=4;spacingRight=4;overflow=hidden;rotatable=0;points=[[0,0.5],[1,0.5]];portConstraint=eastwest;whiteSpace=wrap;html=1;" vertex="1" parent="zGOCCgwyKRxWl-AE_hX9-2">
          <mxGeometry y="26" width="160" height="84" as="geometry" />
        </mxCell>
        <mxCell id="zGOCCgwyKRxWl-AE_hX9-4" value="" style="line;strokeWidth=1;fillColor=none;align=left;verticalAlign=middle;spacingTop=-1;spacingLeft=3;spacingRight=3;rotatable=0;labelPosition=right;points=[];portConstraint=eastwest;strokeColor=inherit;" vertex="1" parent="zGOCCgwyKRxWl-AE_hX9-2">
          <mxGeometry y="110" width="160" height="8" as="geometry" />
        </mxCell>
        <mxCell id="zGOCCgwyKRxWl-AE_hX9-5" value="&lt;div&gt;+Double: calculaM2&lt;/div&gt;&lt;div&gt;+Double: calculaM3&lt;/div&gt;&lt;div&gt;&lt;br&gt;&lt;/div&gt;" style="text;strokeColor=none;fillColor=none;align=left;verticalAlign=top;spacingLeft=4;spacingRight=4;overflow=hidden;rotatable=0;points=[[0,0.5],[1,0.5]];portConstraint=eastwest;whiteSpace=wrap;html=1;" vertex="1" parent="zGOCCgwyKRxWl-AE_hX9-2">
          <mxGeometry y="118" width="160" height="42" as="geometry" />
        </mxCell>
        <mxCell id="zGOCCgwyKRxWl-AE_hX9-6" value="&lt;font style=&quot;vertical-align: inherit;&quot;&gt;&lt;font style=&quot;vertical-align: inherit;&quot;&gt;Calculadora&lt;/font&gt;&lt;/font&gt;" style="swimlane;fontStyle=1;align=center;verticalAlign=top;childLayout=stackLayout;horizontal=1;startSize=26;horizontalStack=0;resizeParent=1;resizeParentMax=0;resizeLast=0;collapsible=1;marginBottom=0;whiteSpace=wrap;html=1;" vertex="1" parent="1">
          <mxGeometry x="40" y="200" width="160" height="240" as="geometry" />
        </mxCell>
        <mxCell id="zGOCCgwyKRxWl-AE_hX9-7" value="&lt;div&gt;&lt;div&gt;+Float: quilosAreia&lt;/div&gt;&lt;/div&gt;&lt;div&gt;+Int:tiposAreia&lt;/div&gt;&lt;div&gt;+Int:desensidadeAreia&lt;/div&gt;&lt;div&gt;+Float:quilosCimento&lt;/div&gt;&lt;div&gt;+Int: desidadeCimento&lt;/div&gt;&lt;div&gt;+Float:quilosBrita&lt;/div&gt;&lt;div&gt;+Int:tiposBrita&lt;/div&gt;&lt;div&gt;+Int: desensidadeBrita&lt;/div&gt;" style="text;strokeColor=none;fillColor=none;align=left;verticalAlign=top;spacingLeft=4;spacingRight=4;overflow=hidden;rotatable=0;points=[[0,0.5],[1,0.5]];portConstraint=eastwest;whiteSpace=wrap;html=1;" vertex="1" parent="zGOCCgwyKRxWl-AE_hX9-6">
          <mxGeometry y="26" width="160" height="124" as="geometry" />
        </mxCell>
        <mxCell id="zGOCCgwyKRxWl-AE_hX9-8" value="" style="line;strokeWidth=1;fillColor=none;align=left;verticalAlign=middle;spacingTop=-1;spacingLeft=3;spacingRight=3;rotatable=0;labelPosition=right;points=[];portConstraint=eastwest;strokeColor=inherit;" vertex="1" parent="zGOCCgwyKRxWl-AE_hX9-6">
          <mxGeometry y="150" width="160" height="8" as="geometry" />
        </mxCell>
        <mxCell id="zGOCCgwyKRxWl-AE_hX9-9" value="&lt;div&gt;+Void: calcular();&lt;/div&gt;&lt;div&gt;+Void: metrosCubicosFormatado();&lt;/div&gt;&lt;div&gt;+Void: materialLitros();&lt;/div&gt;" style="text;strokeColor=none;fillColor=none;align=left;verticalAlign=top;spacingLeft=4;spacingRight=4;overflow=hidden;rotatable=0;points=[[0,0.5],[1,0.5]];portConstraint=eastwest;whiteSpace=wrap;html=1;" vertex="1" parent="zGOCCgwyKRxWl-AE_hX9-6">
          <mxGeometry y="158" width="160" height="82" as="geometry" />
        </mxCell>
        <mxCell id="zGOCCgwyKRxWl-AE_hX9-14" style="edgeStyle=orthogonalEdgeStyle;rounded=0;orthogonalLoop=1;jettySize=auto;html=1;" edge="1" parent="1" source="zGOCCgwyKRxWl-AE_hX9-12" target="zGOCCgwyKRxWl-AE_hX9-2">
          <mxGeometry relative="1" as="geometry" />
        </mxCell>
        <mxCell id="zGOCCgwyKRxWl-AE_hX9-15" style="edgeStyle=orthogonalEdgeStyle;rounded=0;orthogonalLoop=1;jettySize=auto;html=1;entryX=0.5;entryY=0;entryDx=0;entryDy=0;" edge="1" parent="1" source="zGOCCgwyKRxWl-AE_hX9-12" target="zGOCCgwyKRxWl-AE_hX9-6">
          <mxGeometry relative="1" as="geometry" />
        </mxCell>
        <mxCell id="zGOCCgwyKRxWl-AE_hX9-12" value="&lt;span style=&quot;color: rgb(0, 0, 0); font-family: Helvetica; font-size: 12px; font-style: normal; font-variant-ligatures: normal; font-variant-caps: normal; font-weight: 400; letter-spacing: normal; orphans: 2; text-align: center; text-indent: 0px; text-transform: none; widows: 2; word-spacing: 0px; -webkit-text-stroke-width: 0px; white-space: normal; background-color: rgb(251, 251, 251); text-decoration-thickness: initial; text-decoration-style: initial; text-decoration-color: initial; display: inline !important; float: none;&quot;&gt;«interface»&lt;/span&gt;&lt;br style=&quot;forced-color-adjust: none; color: rgb(0, 0, 0); font-family: Helvetica; font-size: 12px; font-style: normal; font-variant-ligatures: normal; font-variant-caps: normal; font-weight: 400; letter-spacing: normal; orphans: 2; text-align: center; text-indent: 0px; text-transform: none; widows: 2; word-spacing: 0px; -webkit-text-stroke-width: 0px; white-space: normal; background-color: rgb(251, 251, 251); text-decoration-thickness: initial; text-decoration-style: initial; text-decoration-color: initial;&quot;&gt;&lt;b style=&quot;forced-color-adjust: none; color: rgb(0, 0, 0); font-family: Helvetica; font-size: 12px; font-style: normal; font-variant-ligatures: normal; font-variant-caps: normal; letter-spacing: normal; orphans: 2; text-align: center; text-indent: 0px; text-transform: none; widows: 2; word-spacing: 0px; -webkit-text-stroke-width: 0px; white-space: normal; background-color: rgb(251, 251, 251); text-decoration-thickness: initial; text-decoration-style: initial; text-decoration-color: initial;&quot;&gt;NavBar&lt;/b&gt;&lt;div&gt;&lt;br/&gt;&lt;/div&gt;" style="whiteSpace=wrap;html=1;verticalAlign=top;fontStyle=1;startSize=26;" vertex="1" parent="1">
          <mxGeometry x="320" y="60" width="120" height="40" as="geometry" />
        </mxCell>
        <mxCell id="zGOCCgwyKRxWl-AE_hX9-17" style="edgeStyle=orthogonalEdgeStyle;rounded=0;orthogonalLoop=1;jettySize=auto;html=1;dashed=1;startArrow=none;startFill=0;endArrow=diamond;endFill=0;" edge="1" parent="1" source="zGOCCgwyKRxWl-AE_hX9-7" target="zGOCCgwyKRxWl-AE_hX9-3">
          <mxGeometry relative="1" as="geometry" />
        </mxCell>
        <mxCell id="zGOCCgwyKRxWl-AE_hX9-18" value="ListaMaterial" style="swimlane;fontStyle=1;align=center;verticalAlign=top;childLayout=stackLayout;horizontal=1;startSize=26;horizontalStack=0;resizeParent=1;resizeParentMax=0;resizeLast=0;collapsible=1;marginBottom=0;whiteSpace=wrap;html=1;" vertex="1" parent="1">
          <mxGeometry x="600" y="280" width="160" height="110" as="geometry" />
        </mxCell>
        <mxCell id="zGOCCgwyKRxWl-AE_hX9-19" value="&lt;div&gt;&lt;div&gt;+Array: listaDeMateriais&lt;/div&gt;&lt;/div&gt;" style="text;strokeColor=none;fillColor=none;align=left;verticalAlign=top;spacingLeft=4;spacingRight=4;overflow=hidden;rotatable=0;points=[[0,0.5],[1,0.5]];portConstraint=eastwest;whiteSpace=wrap;html=1;" vertex="1" parent="zGOCCgwyKRxWl-AE_hX9-18">
          <mxGeometry y="26" width="160" height="34" as="geometry" />
        </mxCell>
        <mxCell id="zGOCCgwyKRxWl-AE_hX9-20" value="" style="line;strokeWidth=1;fillColor=none;align=left;verticalAlign=middle;spacingTop=-1;spacingLeft=3;spacingRight=3;rotatable=0;labelPosition=right;points=[];portConstraint=eastwest;strokeColor=inherit;" vertex="1" parent="zGOCCgwyKRxWl-AE_hX9-18">
          <mxGeometry y="60" width="160" height="8" as="geometry" />
        </mxCell>
        <mxCell id="zGOCCgwyKRxWl-AE_hX9-21" value="&lt;div&gt;+Void:baixarLista&lt;/div&gt;&lt;div&gt;&lt;br&gt;&lt;/div&gt;" style="text;strokeColor=none;fillColor=none;align=left;verticalAlign=top;spacingLeft=4;spacingRight=4;overflow=hidden;rotatable=0;points=[[0,0.5],[1,0.5]];portConstraint=eastwest;whiteSpace=wrap;html=1;" vertex="1" parent="zGOCCgwyKRxWl-AE_hX9-18">
          <mxGeometry y="68" width="160" height="42" as="geometry" />
        </mxCell>
        <mxCell id="zGOCCgwyKRxWl-AE_hX9-24" style="edgeStyle=orthogonalEdgeStyle;rounded=0;orthogonalLoop=1;jettySize=auto;html=1;entryX=0.588;entryY=0.036;entryDx=0;entryDy=0;entryPerimeter=0;" edge="1" parent="1" source="zGOCCgwyKRxWl-AE_hX9-12" target="zGOCCgwyKRxWl-AE_hX9-18">
          <mxGeometry relative="1" as="geometry" />
        </mxCell>
        <mxCell id="zGOCCgwyKRxWl-AE_hX9-27" style="edgeStyle=orthogonalEdgeStyle;rounded=0;orthogonalLoop=1;jettySize=auto;html=1;startArrow=diamond;startFill=0;endArrow=none;endFill=0;" edge="1" parent="1" source="zGOCCgwyKRxWl-AE_hX9-2" target="zGOCCgwyKRxWl-AE_hX9-18">
          <mxGeometry relative="1" as="geometry">
            <Array as="points">
              <mxPoint x="568" y="300" />
              <mxPoint x="568" y="295" />
            </Array>
          </mxGeometry>
        </mxCell>
      </root>
    </mxGraphModel>
  </diagram>
</mxfile>
